<?xml version="1.0" encoding="UTF-8"?>
<svg id="Layer_1" xmlns="http://www.w3.org/2000/svg" version="1.1" viewBox="0 0 800 754.73">
  <!-- Generator: Adobe Illustrator 29.4.0, SVG Export Plug-In . SVG Version: 2.1.0 Build 152)  -->
  <defs>
    <style>
      .st0 {
        fill: #8594af;
      }
    </style>
  </defs>
  <path class="st0" d="M723.64,266.22c-72.36,0-101.95-51.17-65.97-113.94,20.79-36.38,8.4-82.76-27.99-103.55l-69.17-39.58c-31.58-18.79-72.36-7.6-91.15,23.99l-4.4,7.6c-35.98,62.77-95.15,62.77-131.53,0l-4.4-7.6c-17.99-31.58-58.77-42.78-90.35-23.99l-69.17,39.58c-36.38,20.79-48.78,67.57-27.99,103.95,36.38,62.37,6.8,113.54-65.57,113.54-41.58,0-75.96,33.98-75.96,75.96v70.36c0,41.58,33.98,75.96,75.96,75.96,72.36,0,101.95,51.17,65.57,113.94-20.79,36.38-8.4,82.76,27.99,103.55l69.17,39.58c31.58,18.79,72.36,7.6,91.15-23.99l4.4-7.6c35.98-62.77,95.15-62.77,131.53,0l4.4,7.6c18.79,31.58,59.57,42.78,91.15,23.99l69.17-39.58c36.38-20.79,48.78-67.57,27.99-103.55-36.38-62.77-6.8-113.94,65.57-113.94,41.58,0,75.96-33.98,75.96-75.96v-70.36c-.4-41.58-34.38-75.96-76.36-75.96ZM399.8,507.3c-71.56,0-129.94-58.37-129.94-129.94s58.37-129.94,129.94-129.94,129.94,58.37,129.94,129.94-58.37,129.94-129.94,129.94Z"/>
</svg>